<mxfile host="app.diagrams.net" modified="2024-04-06T17:04:10.510Z" agent="Mozilla/5.0 (Windows NT 10.0; Win64; x64) AppleWebKit/537.36 (KHTML, like Gecko) Chrome/123.0.0.0 Safari/537.36" etag="nElzcU6AxPoJI9_-3ioT" version="24.2.2" type="device">
  <diagram name="Page-1" id="b5b7bab2-c9e2-2cf4-8b2a-24fd1a2a6d21">
    <mxGraphModel dx="1434" dy="772" grid="1" gridSize="10" guides="1" tooltips="1" connect="1" arrows="1" fold="1" page="1" pageScale="1" pageWidth="827" pageHeight="1169" background="none" math="0" shadow="0">
      <root>
        <mxCell id="0" />
        <mxCell id="1" parent="0" />
        <mxCell id="6e0c8c40b5770093-43" value="Menu Page" style="shape=folder;fontStyle=1;spacingTop=10;tabWidth=50;tabHeight=17;tabPosition=left;html=1;rounded=0;shadow=0;comic=0;labelBackgroundColor=none;strokeColor=#000000;strokeWidth=1;fillColor=#ffffff;fontFamily=Verdana;fontSize=10;fontColor=#000000;align=center;" parent="1" vertex="1">
          <mxGeometry x="592" y="490" width="112" height="70" as="geometry" />
        </mxCell>
        <mxCell id="6e0c8c40b5770093-44" value="Game Page" style="shape=folder;fontStyle=1;spacingTop=10;tabWidth=50;tabHeight=17;tabPosition=left;html=1;rounded=0;shadow=0;comic=0;labelBackgroundColor=none;strokeColor=#000000;strokeWidth=1;fillColor=#ffffff;fontFamily=Verdana;fontSize=10;fontColor=#000000;align=center;" parent="1" vertex="1">
          <mxGeometry x="480" y="300" width="112" height="70" as="geometry" />
        </mxCell>
        <mxCell id="6e0c8c40b5770093-61" style="edgeStyle=none;rounded=0;html=1;entryX=0;entryY=0;entryPerimeter=0;dashed=1;labelBackgroundColor=none;startFill=0;endArrow=open;endFill=0;endSize=10;fontFamily=Verdana;fontSize=10;entryDx=112;entryDy=43.5;exitX=0;exitY=0;exitDx=0;exitDy=30.25;exitPerimeter=0;" parent="1" source="6e0c8c40b5770093-43" target="6e0c8c40b5770093-44" edge="1">
          <mxGeometry relative="1" as="geometry">
            <mxPoint x="811.274653085326" y="428.5" as="sourcePoint" />
            <mxPoint x="795.8499999999999" y="498.98" as="targetPoint" />
          </mxGeometry>
        </mxCell>
        <mxCell id="MUT1ArIslfG2jBay_hcq-9" value="Access" style="edgeLabel;html=1;align=center;verticalAlign=middle;resizable=0;points=[];" vertex="1" connectable="0" parent="6e0c8c40b5770093-61">
          <mxGeometry x="0.1097" y="-2" relative="1" as="geometry">
            <mxPoint as="offset" />
          </mxGeometry>
        </mxCell>
        <mxCell id="MUT1ArIslfG2jBay_hcq-1" value="Input Name Form" style="shape=folder;fontStyle=1;spacingTop=10;tabWidth=50;tabHeight=17;tabPosition=left;html=1;rounded=0;shadow=0;comic=0;labelBackgroundColor=none;strokeColor=#000000;strokeWidth=1;fillColor=#ffffff;fontFamily=Verdana;fontSize=10;fontColor=#000000;align=center;" vertex="1" parent="1">
          <mxGeometry x="704" y="300" width="112" height="70" as="geometry" />
        </mxCell>
        <mxCell id="MUT1ArIslfG2jBay_hcq-2" value="Leaderboard Page" style="shape=folder;fontStyle=1;spacingTop=10;tabWidth=50;tabHeight=17;tabPosition=left;html=1;rounded=0;shadow=0;comic=0;labelBackgroundColor=none;strokeColor=#000000;strokeWidth=1;fillColor=#ffffff;fontFamily=Verdana;fontSize=10;fontColor=#000000;align=center;" vertex="1" parent="1">
          <mxGeometry x="870" y="490" width="112" height="70" as="geometry" />
        </mxCell>
        <mxCell id="MUT1ArIslfG2jBay_hcq-3" value="Options Page" style="shape=folder;fontStyle=1;spacingTop=10;tabWidth=50;tabHeight=17;tabPosition=left;html=1;rounded=0;shadow=0;comic=0;labelBackgroundColor=none;strokeColor=#000000;strokeWidth=1;fillColor=#ffffff;fontFamily=Verdana;fontSize=10;fontColor=#000000;align=center;" vertex="1" parent="1">
          <mxGeometry x="368" y="490" width="112" height="70" as="geometry" />
        </mxCell>
        <mxCell id="MUT1ArIslfG2jBay_hcq-4" style="edgeStyle=none;rounded=0;html=1;entryX=0;entryY=0;entryPerimeter=0;dashed=1;labelBackgroundColor=none;startFill=0;endArrow=open;endFill=0;endSize=10;fontFamily=Verdana;fontSize=10;entryDx=0;entryDy=43.5;exitX=0;exitY=0;exitDx=112;exitDy=43.5;exitPerimeter=0;" edge="1" parent="1" source="6e0c8c40b5770093-44" target="MUT1ArIslfG2jBay_hcq-1">
          <mxGeometry relative="1" as="geometry">
            <mxPoint x="670" y="540" as="sourcePoint" />
            <mxPoint x="602" y="354" as="targetPoint" />
          </mxGeometry>
        </mxCell>
        <mxCell id="MUT1ArIslfG2jBay_hcq-10" value="Access" style="edgeLabel;html=1;align=center;verticalAlign=middle;resizable=0;points=[];" vertex="1" connectable="0" parent="MUT1ArIslfG2jBay_hcq-4">
          <mxGeometry x="-0.3623" y="-1" relative="1" as="geometry">
            <mxPoint x="14" y="1" as="offset" />
          </mxGeometry>
        </mxCell>
        <mxCell id="MUT1ArIslfG2jBay_hcq-6" value="JSON Storage" style="shape=folder;fontStyle=1;spacingTop=10;tabWidth=50;tabHeight=17;tabPosition=left;html=1;rounded=0;shadow=0;comic=0;labelBackgroundColor=none;strokeColor=#000000;strokeWidth=1;fillColor=#ffffff;fontFamily=Verdana;fontSize=10;fontColor=#000000;align=center;" vertex="1" parent="1">
          <mxGeometry x="900" y="300" width="112" height="70" as="geometry" />
        </mxCell>
        <mxCell id="MUT1ArIslfG2jBay_hcq-11" style="edgeStyle=none;rounded=0;html=1;entryX=0;entryY=0;entryPerimeter=0;dashed=1;labelBackgroundColor=none;startFill=0;endArrow=open;endFill=0;endSize=10;fontFamily=Verdana;fontSize=10;entryDx=0;entryDy=43.5;exitX=0;exitY=0;exitDx=112;exitDy=43.5;exitPerimeter=0;" edge="1" parent="1" source="MUT1ArIslfG2jBay_hcq-1" target="MUT1ArIslfG2jBay_hcq-6">
          <mxGeometry relative="1" as="geometry">
            <mxPoint x="850" y="430" as="sourcePoint" />
            <mxPoint x="988" y="430" as="targetPoint" />
          </mxGeometry>
        </mxCell>
        <mxCell id="MUT1ArIslfG2jBay_hcq-12" value="Merge" style="edgeLabel;html=1;align=center;verticalAlign=middle;resizable=0;points=[];" vertex="1" connectable="0" parent="MUT1ArIslfG2jBay_hcq-11">
          <mxGeometry x="-0.3623" y="-1" relative="1" as="geometry">
            <mxPoint x="14" y="1" as="offset" />
          </mxGeometry>
        </mxCell>
        <mxCell id="MUT1ArIslfG2jBay_hcq-15" style="edgeStyle=none;rounded=0;html=1;entryX=0;entryY=0;entryPerimeter=0;dashed=1;labelBackgroundColor=none;startFill=0;endArrow=open;endFill=0;endSize=10;fontFamily=Verdana;fontSize=10;entryDx=81;entryDy=17;exitX=0.5;exitY=1;exitDx=0;exitDy=0;exitPerimeter=0;" edge="1" parent="1" source="MUT1ArIslfG2jBay_hcq-6" target="MUT1ArIslfG2jBay_hcq-2">
          <mxGeometry relative="1" as="geometry">
            <mxPoint x="980" y="390" as="sourcePoint" />
            <mxPoint x="1118" y="390" as="targetPoint" />
          </mxGeometry>
        </mxCell>
        <mxCell id="MUT1ArIslfG2jBay_hcq-16" value="Access" style="edgeLabel;html=1;align=center;verticalAlign=middle;resizable=0;points=[];" vertex="1" connectable="0" parent="MUT1ArIslfG2jBay_hcq-15">
          <mxGeometry x="-0.3623" y="-1" relative="1" as="geometry">
            <mxPoint x="14" y="1" as="offset" />
          </mxGeometry>
        </mxCell>
        <mxCell id="MUT1ArIslfG2jBay_hcq-17" style="edgeStyle=none;rounded=0;html=1;entryX=0;entryY=0;entryPerimeter=0;dashed=1;labelBackgroundColor=none;startFill=0;endArrow=open;endFill=0;endSize=10;fontFamily=Verdana;fontSize=10;entryDx=0;entryDy=43.5;exitX=0;exitY=0;exitDx=112;exitDy=43.5;exitPerimeter=0;" edge="1" parent="1" source="6e0c8c40b5770093-43" target="MUT1ArIslfG2jBay_hcq-2">
          <mxGeometry relative="1" as="geometry">
            <mxPoint x="966" y="380" as="sourcePoint" />
            <mxPoint x="960" y="517" as="targetPoint" />
          </mxGeometry>
        </mxCell>
        <mxCell id="MUT1ArIslfG2jBay_hcq-18" value="Access" style="edgeLabel;html=1;align=center;verticalAlign=middle;resizable=0;points=[];" vertex="1" connectable="0" parent="MUT1ArIslfG2jBay_hcq-17">
          <mxGeometry x="-0.3623" y="-1" relative="1" as="geometry">
            <mxPoint x="14" y="1" as="offset" />
          </mxGeometry>
        </mxCell>
        <mxCell id="MUT1ArIslfG2jBay_hcq-19" style="edgeStyle=none;rounded=0;html=1;entryX=0;entryY=0;entryPerimeter=0;dashed=1;labelBackgroundColor=none;startFill=0;endArrow=open;endFill=0;endSize=10;fontFamily=Verdana;fontSize=10;entryDx=112;entryDy=43.5;exitX=0;exitY=0;exitDx=0;exitDy=43.5;exitPerimeter=0;" edge="1" parent="1" source="6e0c8c40b5770093-43" target="MUT1ArIslfG2jBay_hcq-3">
          <mxGeometry relative="1" as="geometry">
            <mxPoint x="714" y="544" as="sourcePoint" />
            <mxPoint x="910" y="544" as="targetPoint" />
          </mxGeometry>
        </mxCell>
        <mxCell id="MUT1ArIslfG2jBay_hcq-20" value="Access" style="edgeLabel;html=1;align=center;verticalAlign=middle;resizable=0;points=[];" vertex="1" connectable="0" parent="MUT1ArIslfG2jBay_hcq-19">
          <mxGeometry x="-0.3623" y="-1" relative="1" as="geometry">
            <mxPoint x="-6" y="1" as="offset" />
          </mxGeometry>
        </mxCell>
        <mxCell id="MUT1ArIslfG2jBay_hcq-21" style="edgeStyle=orthogonalEdgeStyle;rounded=0;orthogonalLoop=1;jettySize=auto;html=1;exitX=0.5;exitY=1;exitDx=0;exitDy=0;exitPerimeter=0;" edge="1" parent="1" source="MUT1ArIslfG2jBay_hcq-2" target="MUT1ArIslfG2jBay_hcq-2">
          <mxGeometry relative="1" as="geometry" />
        </mxCell>
      </root>
    </mxGraphModel>
  </diagram>
</mxfile>
